<?xml version="1.0" encoding="UTF-8" standalone="no"?>
<svg
   xmlns:dc="http://purl.org/dc/elements/1.1/"
   xmlns:cc="http://creativecommons.org/ns#"
   xmlns:rdf="http://www.w3.org/1999/02/22-rdf-syntax-ns#"
   xmlns:svg="http://www.w3.org/2000/svg"
   xmlns="http://www.w3.org/2000/svg"
   xmlns:sodipodi="http://sodipodi.sourceforge.net/DTD/sodipodi-0.dtd"
   xmlns:inkscape="http://www.inkscape.org/namespaces/inkscape"
   width="300"
   height="300"
   style="border:0px solid #666"
   id="svg2"
   version="1.1"
   inkscape:version="0.91 r13725"
   sodipodi:docname="中-songti.svg">
  <metadata
     id="metadata12">
    <rdf:RDF>
      <cc:Work
         rdf:about="">
        <dc:format>image/svg+xml</dc:format>
        <dc:type
           rdf:resource="http://purl.org/dc/dcmitype/StillImage" />
      </cc:Work>
    </rdf:RDF>
  </metadata>
  <defs
     id="defs10" />
  <sodipodi:namedview/>
  <path
     font-weight="bold"
     font-style="normal"
     d="m 159.70296,157.60784 0,-65.814974 79.5705,0 0,65.814974 z m -103.84693,0 0,-65.814974 79.5705,0 0,65.814974 z m 193.35872,-93.754041 -12.87052,13.45235 -76.64127,0 0,-46.017462 c 7.60393,-1.173695 9.95132,-8.383801 10.82407,-12.486718 L 135.42653,15 l 0,62.306149 -77.22311,0 -26.3329,-11.405907 0,134.272708 3.801969,0 c 9.951328,0 20.183541,-5.85844 20.183541,-8.1958 l 0,-19.89262 79.5705,0 0,112.91547 4.68475,0 c 9.05852,0 19.59168,-6.13933 19.59168,-9.35946 l 0,-103.55601 79.5705,0 0,24.27642 4.09288,0 c 8.18577,0 20.18354,-4.96563 20.47446,-7.01207 l 0,-98.871265 c 5.84841,-1.173695 10.53316,-3.812001 12.28868,-6.149359 z"
     id="path4"
     inkscape:connector-curvature="0"
     style="font-style:normal;font-weight:normal;font-family:'cwTeX Q KaiZH';fill:white"
     color="white"
     fill="white"
     stroke="white"
     sodipodi:nodetypes="ccccccccccccccccccccsscccsscccscccc" />
  <path
     fill="white"
     font-weight="normal"
     font-style="normal"
     d=""
     id="path6" />
</svg>
